<svg width="26" height="26" viewBox="0 0 26 26" fill="none" xmlns="http://www.w3.org/2000/svg">
<rect width="26" height="26" fill="#FFE41E"/>
<path d="M5.53963 2.44208V13.2902C5.53963 17.0313 9.86216 21.3972 13.063 23.4288C16.2639 21.3982 20.5864 17.0313 20.5864 13.2902V2.44208H5.53963ZM20.1443 13.2902C20.1443 16.7317 16.0821 20.9066 13.063 22.9021C10.0439 20.9056 5.98169 16.7317 5.98169 13.2902V2.88414H20.1443V13.2902Z" fill="white"/>
<path d="M11.0624 19.2757C10.4271 18.9359 9.67522 18.6994 8.86649 18.7489C9.01728 18.9256 9.16705 19.1042 9.32508 19.2757H11.0634H11.0624Z" fill="white"/>
<path d="M15.0637 19.2757H16.802C16.959 19.1042 17.1087 18.9256 17.2595 18.7489C16.4498 18.6994 15.6989 18.9359 15.0637 19.2757Z" fill="white"/>
<path d="M17.996 13.2551H17.5818V18.3585C17.7223 18.1829 17.8648 18.0084 17.996 17.8286V13.2551Z" fill="white"/>
<path d="M8.54423 13.2551H8.13005V17.8286C8.26226 18.0084 8.40376 18.1829 8.54423 18.3585V13.2551Z" fill="white"/>
<path d="M12.9639 17.9299H13.1632V20.1454C13.8697 19.4441 15.3436 18.248 17.1346 18.2893V12.4588C16.7503 12.4237 16.1595 12.3793 15.702 12.3793C14.0659 12.3793 13.3873 13.0238 13.3811 13.03C13.3811 13.03 13.1942 13.2283 13.1942 13.9337H12.9329C12.9329 13.2293 12.747 13.03 12.747 13.03C12.7408 13.0238 12.0622 12.3793 10.4261 12.3793C9.96752 12.3793 9.37878 12.4237 8.99249 12.4588V18.2893C10.7845 18.248 12.2574 19.4441 12.9649 20.1454V17.9299H12.9639ZM11.1636 15.169C11.1636 14.8654 11.4104 14.1599 12.0952 14.1599C12.78 14.1599 13.064 14.7115 13.064 14.7115C13.064 14.7115 13.3481 14.1599 14.0318 14.1599C14.7156 14.1599 14.9635 14.8664 14.9635 15.169C14.9635 16.1627 13.064 17.243 13.064 17.5291C13.064 17.243 11.1636 16.1627 11.1636 15.169Z" fill="white"/>
<path d="M19.5876 11.6883C19.5876 11.6883 19.8593 11.3133 19.8593 10.9043C19.8593 10.3042 19.1579 9.39324 18.0807 9.39324C17.8152 9.39324 17.5446 9.44488 17.2812 9.52751L19.4533 6.14282L15.9065 8.36451C15.9385 7.90385 15.9065 7.47418 16.1895 7.17568C16.4746 6.87512 17.0767 6.9061 17.0767 6.9061C17.0767 6.9061 17.0055 6.4785 16.708 6.19653C16.2721 5.78338 15.1298 5.6646 14.3882 6.44545C14.2157 6.62723 14.0742 6.84413 13.9564 7.07446L13.062 3.1785L12.058 7.54441C11.7513 7.2139 11.4301 6.94432 11.4094 6.54047C11.3887 6.12629 11.8318 5.70798 11.8318 5.70798C11.8318 5.70798 11.4662 5.46939 11.0572 5.49005C10.4581 5.52103 9.58432 6.26883 9.6401 7.34404C9.65353 7.59915 9.71446 7.85634 9.80432 8.10526L6.67165 6.14282L9.06583 9.87352C8.48536 9.85803 7.96479 10.0729 7.55475 9.77953C7.21803 9.53887 7.19118 8.92122 7.19118 8.92122C7.19118 8.92122 6.75221 9.06789 6.51362 9.40047C6.16451 9.88901 6.20479 11.0376 7.08169 11.6645C7.49587 11.9609 8.04019 12.1128 8.54423 12.1882V12.0529C8.54423 12.0529 9.24038 11.9764 9.91277 11.9454C9.92 11.868 9.9293 11.7915 9.94169 11.7161C9.22385 11.7843 8.17756 11.7761 7.58986 11.3557C6.82658 10.8103 6.93193 10.0698 6.93193 10.0698C6.93193 10.0698 7.04245 10.2608 7.23043 10.3961C8.09907 11.0159 8.93052 10.1927 9.73202 10.7659C9.90141 10.8868 10.0192 11.0252 10.0956 11.1357C10.1627 10.956 10.2454 10.7824 10.3424 10.6192L8.42855 7.99164L10.9828 9.84976C11.113 9.73615 11.2524 9.63286 11.4001 9.54197C11.1408 9.30441 10.2557 8.26432 10.2557 7.48141C10.2557 6.54357 10.8578 6.25953 10.8578 6.25953C10.8578 6.25953 10.7773 6.46507 10.7886 6.69643C10.8434 7.76131 11.9857 7.82742 12.0363 8.81174C12.0456 8.98319 12.0229 9.13606 11.9919 9.2569C12.1665 9.1939 12.3472 9.14638 12.5332 9.11437L13.0651 5.75549L13.596 9.11437C13.7674 9.14329 13.9347 9.18563 14.0959 9.24141C14.0824 8.76216 14.1888 7.68488 14.7662 7.03934C15.3539 6.38347 16.0624 6.61277 16.0624 6.61277C16.0624 6.61277 15.8579 6.6954 15.6989 6.86272C14.9645 7.63634 15.7237 8.55042 15.0461 9.26516C14.9335 9.38394 14.8137 9.46967 14.7094 9.53164C14.8643 9.62563 15.011 9.73305 15.1463 9.8508L17.7006 7.99268L15.7867 10.6203C15.8693 10.7597 15.9426 10.9054 16.0025 11.0572C16.3723 10.6699 17.0778 10.0749 17.9113 10.0749C18.8501 10.0749 19.1962 10.7669 19.1962 10.7669C19.1962 10.7669 18.9947 10.675 18.7644 10.675C17.6975 10.675 17.4754 11.8101 16.4911 11.8101C16.3847 11.8101 16.2855 11.7988 16.1978 11.7802C16.205 11.8349 16.2039 11.8917 16.2091 11.9465C16.6966 11.9692 17.1955 12.0157 17.4351 12.0394C17.9474 11.7141 18.2717 11.2018 18.7944 11.2018C19.2085 11.2018 19.5897 11.6883 19.5897 11.6883H19.5876Z" fill="#FFE41E"/>
<path d="M17.5818 12.9122H18.3378V17.3432C19.2406 16.0077 19.85 14.603 19.85 13.2892V12.3689H17.5818V12.9112V12.9122Z" fill="#FFE41E"/>
<path d="M6.27606 13.2902C6.27606 14.604 6.88545 16.0087 7.78817 17.3442V12.9132H8.54423V12.371H6.27606V13.2913V13.2902Z" fill="#FFE41E"/>
<path d="M13.064 12.7149C13.064 12.7149 13.2262 12.5486 13.5836 12.37C13.9874 12.1675 14.6423 11.9496 15.6008 11.9341C15.4531 10.6647 14.3737 9.67728 13.064 9.67728C11.7544 9.67728 10.675 10.6637 10.5263 11.9341C11.4848 11.9496 12.1396 12.1675 12.5435 12.37C12.9008 12.5497 13.064 12.7149 13.064 12.7149Z" fill="#FFE41E"/>
<path d="M13.064 20.9138C13.064 20.9138 12.5063 20.2228 11.6211 19.6186H9.6432C10.7825 20.8126 12.0271 21.8423 13.064 22.5468C14.1 21.8423 15.3446 20.8126 16.4839 19.6186H14.5059C13.6197 20.2218 13.064 20.9138 13.064 20.9138Z" fill="#FFE41E"/>
<path d="M14.0308 14.1599C13.347 14.1599 13.063 14.7115 13.063 14.7115C13.063 14.7115 12.7769 14.1599 12.0942 14.1599C11.4115 14.1599 11.1625 14.8664 11.1625 15.169C11.1625 16.1626 13.063 17.243 13.063 17.5291C13.063 17.243 14.9624 16.1626 14.9624 15.169C14.9624 14.8654 14.7146 14.1599 14.0308 14.1599Z" fill="#F04C3C"/>
<path d="M5.09859 13.2902C5.09859 17.4589 10.0605 22.1192 13.064 23.9494C16.0655 22.1192 21.0284 17.4589 21.0284 13.2902V2H5.09859V13.2902ZM5.53962 2.44207H20.5864V13.2902C20.5864 17.0313 16.2638 21.3972 13.063 23.4288C9.86216 21.3972 5.53962 17.0313 5.53962 13.2902V2.44207Z" fill="#502D0E"/>
<path d="M13.064 22.9021C16.0831 20.9055 20.1454 16.7317 20.1454 13.2902V2.88412H5.98169V13.2902C5.98169 16.7317 10.0429 20.9066 13.063 22.9021H13.064ZM16.803 19.2757H15.0647C15.6999 18.9359 16.4508 18.6993 17.2606 18.7489C17.1098 18.9255 16.96 19.1042 16.803 19.2757ZM12.9638 17.9299V20.1453C12.2563 19.444 10.7835 18.248 8.99145 18.2893V12.4588C9.37671 12.4237 9.96648 12.3792 10.4251 12.3792C12.0611 12.3792 12.7397 13.0237 12.7459 13.0299C12.7459 13.0299 12.9318 13.2283 12.9318 13.9337H13.1931C13.1931 13.2293 13.3801 13.0299 13.3801 13.0299C13.3863 13.0237 14.0649 12.3792 15.7009 12.3792C16.1585 12.3792 16.7493 12.4237 17.1335 12.4588V18.2893C15.3425 18.248 13.8686 19.444 13.1622 20.1453V17.9299H12.9628H12.9638ZM10.5263 11.9341C10.675 10.6647 11.7533 9.67727 13.064 9.67727C14.3747 9.67727 15.4531 10.6637 15.6008 11.9341C14.6423 11.9496 13.9874 12.1675 13.5836 12.3699C13.2272 12.5497 13.064 12.7149 13.064 12.7149C13.064 12.7149 12.9008 12.5486 12.5435 12.3699C12.1396 12.1675 11.4838 11.9496 10.5263 11.9341ZM17.996 17.8276C17.8648 18.0073 17.7223 18.1819 17.5818 18.3575V13.2541H17.996V17.8276ZM19.85 13.2892C19.85 14.603 19.2406 16.0077 18.3378 17.3432V12.9122H17.5818V12.3699H19.85V13.2902V13.2892ZM6.51465 9.40046C6.75324 9.06685 7.19221 8.92121 7.19221 8.92121C7.19221 8.92121 7.21906 9.53887 7.55577 9.77952C7.96582 10.0718 8.48638 9.85802 9.06685 9.87351L6.67164 6.14281L9.80535 8.10732C9.71549 7.85736 9.65455 7.60018 9.64113 7.3461C9.58535 6.27089 10.4592 5.52309 11.0582 5.49211C11.4672 5.47145 11.8329 5.71004 11.8329 5.71004C11.8329 5.71004 11.3898 6.12938 11.4104 6.54253C11.4311 6.94638 11.7523 7.21596 12.0591 7.54647L13.063 3.18056L13.9575 7.07652C14.0742 6.84516 14.2167 6.62826 14.3892 6.4475C15.1308 5.66666 16.2731 5.78544 16.709 6.19858C17.0065 6.48056 17.0777 6.90816 17.0777 6.90816C17.0777 6.90816 16.4756 6.87718 16.1905 7.17774C15.9065 7.47624 15.9395 7.90591 15.9075 8.36657L19.4544 6.14488L17.2823 9.52957C17.5456 9.44694 17.8162 9.3953 18.0817 9.3953C19.159 9.3953 19.8603 10.3053 19.8603 10.9064C19.8603 11.3154 19.5886 11.6903 19.5886 11.6903C19.5886 11.6903 19.2075 11.2038 18.7933 11.2038C18.2717 11.2038 17.9474 11.7161 17.4341 12.0415C17.1945 12.0177 16.6956 11.9723 16.2081 11.9485C16.2029 11.8938 16.2039 11.837 16.1967 11.7822C16.2845 11.8008 16.3837 11.8122 16.49 11.8122C17.4744 11.8122 17.6964 10.6771 18.7634 10.6771C18.9947 10.6771 19.1951 10.769 19.1951 10.769C19.1951 10.769 18.8481 10.077 17.9102 10.077C17.0767 10.077 16.3713 10.6719 16.0015 11.0592C15.9416 10.9074 15.8693 10.7618 15.7856 10.6223L17.6995 7.99473L15.1453 9.85286C15.01 9.73511 14.8633 9.62666 14.7084 9.5337C14.8127 9.47276 14.9325 9.386 15.0451 9.26722C15.7226 8.55351 14.9635 7.63943 15.6978 6.86478C15.8569 6.69746 16.0614 6.61483 16.0614 6.61483C16.0614 6.61483 15.3529 6.38553 14.7652 7.0414C14.1878 7.68694 14.0814 8.76422 14.0948 9.24347C13.9337 9.18769 13.7664 9.14535 13.5949 9.11643L13.064 5.75755L12.5321 9.11643C12.3452 9.14844 12.1644 9.19596 11.9909 9.25896C12.0219 9.13812 12.0436 8.98525 12.0353 8.8138C11.9847 7.83051 10.8434 7.76337 10.7876 6.69849C10.7762 6.46713 10.8568 6.26159 10.8568 6.26159C10.8568 6.26159 10.2546 6.54563 10.2546 7.48347C10.2546 8.26638 11.1398 9.3075 11.3991 9.54403C11.2524 9.63492 11.1119 9.73924 10.9818 9.85182L8.42751 7.9937L10.3414 10.6213C10.2443 10.7845 10.1617 10.958 10.0946 11.1377C10.0181 11.0272 9.90037 10.8888 9.73099 10.768C8.92948 10.1947 8.09803 11.0179 7.22939 10.3982C7.04141 10.2629 6.93089 10.0718 6.93089 10.0718C6.93089 10.0718 6.82554 10.8114 7.58883 11.3577C8.17653 11.7781 9.22385 11.7853 9.94066 11.7182C9.92826 11.7946 9.91897 11.87 9.91174 11.9475C9.23934 11.9795 8.54319 12.0549 8.54319 12.0549V12.1902C8.03915 12.1138 7.49587 11.962 7.08066 11.6666C6.20376 11.0396 6.16347 9.89107 6.51258 9.40253L6.51465 9.40046ZM7.78817 17.3442C6.88545 16.0087 6.27606 14.604 6.27606 13.2902V12.3699H8.54422V12.9122H7.78817V17.3432V17.3442ZM8.13005 13.2561H8.54422V18.3595C8.40376 18.1839 8.26225 18.0094 8.13005 17.8297V13.2561ZM8.86545 18.7499C9.67521 18.7004 10.4271 18.9369 11.0613 19.2767H9.323C9.16601 19.1052 9.01521 18.9266 8.86441 18.7499H8.86545ZM11.6201 19.6196C12.5063 20.2228 13.063 20.9148 13.063 20.9148C13.063 20.9148 13.6187 20.2238 14.5049 19.6196H16.4828C15.3436 20.8136 14.099 21.8434 13.063 22.5478C12.025 21.8434 10.7814 20.8136 9.64216 19.6196H11.6201Z" fill="#502D0E"/>
</svg>
